Coordinates
version=1
nRows=24
nColumns=38
inDegrees=no

Units are S.I. units (second, meters, Newtons, ...)
If the header above contains a line with 'inDegrees', this indicates whether rotational values are in degrees (yes) or radians (no).

endheader
time	pelvis_tilt	pelvis_list	pelvis_rotation	pelvis_tx	pelvis_ty	pelvis_tz	hip_flexion_r	hip_adduction_r	hip_rotation_r	knee_angle_r	ankle_angle_r	subtalar_angle_r	mtp_angle_r	hip_flexion_l	hip_adduction_l	hip_rotation_l	knee_angle_l	ankle_angle_l	subtalar_angle_l	mtp_angle_l	lumbar_extension	lumbar_bending	lumbar_rotation	arm_flex_r	arm_add_r	arm_rot_r	elbow_flex_r	pro_sup_r	wrist_flex_r	wrist_dev_r	arm_flex_l	arm_add_l	arm_rot_l	elbow_flex_l	pro_sup_l	wrist_flex_l	wrist_dev_l
10	1.43418	1.29402	0.0299707	0.65583	2.18384	0.924448	0.0376709	0.195391	-0.0116786	0.213976	-0.331156	0	0	0.460754	-0.397134	-0.145785	0.751271	-0.245528	0	0	-0.780601	-0.212742	-0.513873	0.880433	0.00892884	0.473355	1.93442	1.5708	0	0	1.13866	-0.724971	-0.606239	0.541372	1.5708	0	0
10.01	1.44146	1.29407	0.0192953	0.655414	2.18365	0.924689	0.0343563	0.194888	-0.0095761	0.210567	-0.332804	0	0	0.456345	-0.398547	-0.150706	0.750296	-0.246121	0	0	-0.778875	-0.222636	-0.513502	0.877728	0.00270734	0.469687	1.92799	1.5708	0	0	1.13657	-0.717546	-0.610396	0.541631	1.5708	0	0
10.02	1.45056	1.29462	0.0100527	0.654656	2.18299	0.925174	0.0329237	0.192769	-0.0114671	0.210705	-0.334091	0	0	0.453395	-0.396702	-0.149931	0.748601	-0.247087	0	0	-0.783575	-0.22286	-0.511885	0.879016	0.000985708	0.466764	1.92972	1.5708	0	0	1.13292	-0.709816	-0.616468	0.547114	1.5708	0	0
10.03	1.45826	1.30227	0.00241163	0.653796	2.18285	0.923856	0.0337271	0.183332	-0.0177982	0.217349	-0.324353	0	0	0.451051	-0.388085	-0.152801	0.753574	-0.241797	0	0	-0.76293	-0.271593	-0.361751	0.78239	-0.111303	0.322463	2.00755	1.5708	0	0	1.10392	-0.36547	-0.95159	0.874857	1.5708	0	0
10.04	1.4418	1.2938	0.014412	0.653374	2.18251	0.925566	0.0392182	0.191242	-0.0151691	0.216888	-0.339619	0	0	0.452829	-0.396472	-0.15138	0.74559	-0.24866	0	0	-0.750955	-0.243864	-0.391156	0.817214	-0.0761663	0.381093	1.96199	1.5708	0	0	1.05868	-0.504391	-0.643243	0.75547	1.5708	0	0
10.05	1.43885	1.29424	0.0137831	0.65304	2.18228	0.925729	0.0419546	0.190584	-0.0137045	0.220238	-0.340271	0	0	0.451231	-0.397125	-0.15602	0.744254	-0.249009	0	0	-0.751437	-0.245401	-0.389238	0.817842	-0.0760988	0.380641	1.96238	1.5708	0	0	1.04553	-0.499338	-0.652598	0.769028	1.5708	0	0
10.06	1.44615	1.29481	0.00601086	0.652313	2.18157	0.926246	0.0433411	0.188619	-0.0155813	0.225026	-0.341289	0	0	0.448446	-0.395637	-0.156695	0.742083	-0.25018	0	0	-0.761281	-0.238832	-0.382037	0.819313	-0.0740959	0.37477	1.97616	1.5708	0	0	1.0368	-0.489457	-0.659305	0.782755	1.5708	0	0
10.07	1.46934	1.29307	-0.0189187	0.651619	2.18079	0.927291	0.0400794	0.189556	-0.0154174	0.230124	-0.34363	0	0	0.439859	-0.397675	-0.159542	0.738978	-0.251982	0	0	-0.770808	-0.237919	-0.376202	0.821055	-0.0748679	0.369606	1.97951	1.5708	0	0	1.02662	-0.480032	-0.670814	0.797833	1.5708	0	0
10.08	1.46925	1.29522	-0.0189102	0.650948	2.18077	0.927382	0.0441613	0.185547	-0.0206785	0.237919	-0.345956	0	0	0.437922	-0.394694	-0.161982	0.736572	-0.253708	0	0	-0.766203	-0.244505	-0.385097	0.822895	-0.0787843	0.376119	1.96662	1.5708	0	0	1.00279	-0.476819	-0.695048	0.817264	1.5708	0	0
10.09	1.49776	1.28801	-0.0453	0.649121	2.18059	0.929445	0.0366261	0.189424	-0.0296291	0.237822	-0.354674	0	0	0.427686	-0.399304	-0.161285	0.729915	-0.256809	0	0	-0.782813	-0.228264	-0.373977	0.825971	-0.077767	0.372906	1.97909	1.5708	0	0	0.989295	-0.466849	-0.703034	0.830946	1.5708	0	0
10.1	1.53029	1.2877	-0.0758059	0.647917	2.18029	0.930369	0.0299439	0.186774	-0.0369253	0.241828	-0.36129	0	0	0.416349	-0.397671	-0.163198	0.72683	-0.258245	0	0	-0.793283	-0.225584	-0.370748	0.827908	-0.0799168	0.370222	1.98016	1.5708	0	0	0.974392	-0.458971	-0.712729	0.841337	1.5708	0	0
10.11	1.55148	1.28814	-0.0970406	0.647207	2.1798	0.930987	0.0282885	0.184378	-0.039099	0.248809	-0.364692	0	0	0.408294	-0.396199	-0.165544	0.724172	-0.259235	0	0	-0.799288	-0.224826	-0.367254	0.829998	-0.0816078	0.369016	1.97954	1.5708	0	0	0.957039	-0.452889	-0.722141	0.850697	1.5708	0	0
10.12	1.55916	1.28913	-0.105977	0.646676	2.17938	0.931372	0.0322285	0.181924	-0.0391265	0.258643	-0.365633	0	0	0.40413	-0.394619	-0.167715	0.721433	-0.260708	0	0	-0.794732	-0.229559	-0.37596	0.836654	-0.0839852	0.381209	1.96046	1.5708	0	0	0.925493	-0.457889	-0.739393	0.864198	1.5708	0	0
10.13	1.57009	1.29032	-0.11744	0.646118	2.17888	0.93167	0.0356472	0.179094	-0.0383872	0.268497	-0.366065	0	0	0.400015	-0.392801	-0.169821	0.720013	-0.261506	0	0	-0.801672	-0.223129	-0.364161	0.836657	-0.0832998	0.374642	1.971	1.5708	0	0	0.907781	-0.450358	-0.735369	0.868679	1.5708	0	0
10.14	1.63123	1.28935	-0.176496	0.645286	2.17796	0.932967	0.0219365	0.176642	-0.0422894	0.277222	-0.361708	0	0	0.380344	-0.391369	-0.174086	0.71693	-0.263278	0	0	-0.820373	-0.22723	-0.356033	0.837334	-0.0917528	0.363146	1.97587	1.5708	0	0	0.860703	-0.475237	-0.651371	0.891137	1.5708	0	0
10.15	1.62445	1.29246	-0.171009	0.644882	2.17761	0.932773	0.0304783	0.172787	-0.0413778	0.289379	-0.355825	0	0	0.381651	-0.387694	-0.174941	0.715554	-0.263655	0	0	-0.815657	-0.229009	-0.352421	0.836347	-0.0957565	0.362818	1.97396	1.5708	0	0	0.831889	-0.471034	-0.651567	0.897919	1.5708	0	0
10.16	1.61081	1.29602	-0.162766	0.644798	2.17691	0.932384	0.0438055	0.16948	-0.0323812	0.30683	-0.34912	0	0	0.383963	-0.385482	-0.17932	0.715076	-0.263593	0	0	-0.808387	-0.232311	-0.34691	0.836958	-0.0995173	0.364161	1.97183	1.5708	0	0	0.800552	-0.467415	-0.65494	0.906505	1.5708	0	0
10.17	1.60005	1.30732	-0.154317	0.646007	2.17669	0.930769	0.0579992	0.161027	-0.0219297	0.328997	-0.327692	0	0	0.387923	-0.377674	-0.186966	0.718969	-0.261007	0	0	-0.797063	-0.243524	-0.346621	0.832665	-0.101734	0.362842	1.96806	1.5708	0	0	0.761644	-0.472827	-0.638559	0.915501	1.5708	0	0
10.18	1.60735	1.31048	-0.159477	0.645405	2.17614	0.930492	0.0642315	0.15638	-0.0222396	0.345478	-0.313737	0	0	0.387544	-0.372581	-0.185326	0.719222	-0.260587	0	0	-0.793031	-0.257452	-0.324341	0.814853	-0.129554	0.336893	1.978	1.5708	0	0	0.735169	-0.383668	-0.822662	0.980155	1.5708	0	0
10.19	1.61081	1.31381	-0.161971	0.645026	2.17594	0.930462	0.0704868	0.151897	-0.0221895	0.361099	-0.304335	0	0	0.386569	-0.368334	-0.186732	0.718084	-0.261112	0	0	-0.791072	-0.241491	-0.343813	0.835463	-0.106559	0.367982	1.95724	1.5708	0	0	0.69955	-0.45594	-0.662946	0.9315	1.5708	0	0
10.2	1.63047	1.31773	-0.179281	0.644539	2.17576	0.930335	0.0716311	0.146219	-0.0226262	0.376452	-0.299472	0	0	0.382082	-0.363012	-0.189265	0.718969	-0.260689	0	0	-0.790114	-0.241393	-0.340562	0.835471	-0.109926	0.368332	1.95216	1.5708	0	0	0.671125	-0.443879	-0.675062	0.938091	1.5708	0	0
10.21	1.64927	1.32066	-0.195884	0.644105	2.17556	0.930339	0.0733229	0.14135	-0.0221276	0.393483	-0.293323	0	0	0.377596	-0.358722	-0.191386	0.718563	-0.260827	0	0	-0.788916	-0.240325	-0.33782	0.836846	-0.112894	0.370848	1.94571	1.5708	0	0	0.640647	-0.431465	-0.691538	0.948636	1.5708	0	0
10.22	1.67576	1.32316	-0.219813	0.6436	2.17528	0.93033	0.0741216	0.135883	-0.0223731	0.414177	-0.279129	0	0	0.371184	-0.354235	-0.193097	0.71731	-0.26122	0	0	-0.787452	-0.252997	-0.316455	0.821066	-0.139472	0.349189	1.95261	1.5708	0	0	0.622438	-0.341912	-0.884078	1.00999	1.5708	0	0
10.23	1.69158	1.32685	-0.232856	0.643221	2.17529	0.93023	0.0762522	0.130209	-0.0218626	0.432949	-0.268627	0	0	0.367866	-0.349203	-0.194862	0.716596	-0.261376	0	0	-0.782871	-0.238151	-0.34392	0.863909	-0.141536	0.412574	1.91978	1.5708	0	0	0.567447	-0.411084	-0.740869	0.975746	1.5708	0	0
